<svg id="Camada_1" data-name="Camada 1" xmlns="http://www.w3.org/2000/svg" viewBox="0 0 383.11 64.51"><defs><style>.cls-1,.cls-2{isolation:isolate;}.cls-1{font-size:56.76px;fill:#fff;font-family:Trebuchet-BoldItalic, Trebuchet MS;font-weight:700;font-style:italic;letter-spacing:-0.05em;}.cls-3{fill:#e6352b;}.cls-4{fill:#e6332a;stroke:#e6332a;stroke-miterlimit:10;stroke-width:1.7px;}</style></defs><text class="cls-1" transform="translate(0 48.68) scale(0.9 1)">Cristina</text><g class="cls-2"><path class="cls-3" d="M197.41,33.84a17.82,17.82,0,0,1-.91,5.65,12.85,12.85,0,0,1-2.61,4.64A16,16,0,0,1,188.7,48a13.69,13.69,0,0,1-2.13.89c-2.74.22-6.39.41-8.11.41s-3.12,2.25-3.12,5v4a5,5,0,0,1-5,5h0a5,5,0,0,1-5-5V25.24a5,5,0,0,1,5-5h6.5c2.75,0,7.05.11,9.56.24l1.69.47a14.12,14.12,0,0,1,4.51,2.13,11.08,11.08,0,0,1,3.59,4.37A15,15,0,0,1,197.41,33.84ZM187,34.08a5.41,5.41,0,0,0-.89-3.13,4.94,4.94,0,0,0-2.06-1.83,8.39,8.39,0,0,0-3.05-.76l-1-.05-3.83,0c-.48,0-.87,2.25-.87,5v2.87c0,2.75.65,5,1.44,5s2.84,0,4.55-.11l1.1-.23a5.68,5.68,0,0,0,2.79-1.39,5.4,5.4,0,0,0,1.39-2.2A9.88,9.88,0,0,0,187,34.08Z" transform="translate(0 -14.63)"/><path class="cls-3" d="M211,22.25c0,2.18-2.24,3.95-5,3.95s-5-1.77-5-3.95,2.24-3.94,5-3.94S211,20.08,211,22.25Zm-.26,36.06a4.72,4.72,0,1,1-9.43,0V35.83a4.72,4.72,0,1,1,9.43,0Z" transform="translate(0 -14.63)"/><path class="cls-3" d="M242.23,59.43c0,2.13-2.25,3.88-5,3.88H219.68c-2.75,0-5-1.51-5-3.34s1.45-5.06,3.23-7.16l9-10.56c1.78-2.1,1-3.81-1.76-3.81H220.3c-2.75,0-5-1.72-5-3.81s2.25-3.8,5-3.8h16.64c2.75,0,5,1.48,5,3.28s-1.44,5-3.21,7.12L230,51.72c-1.77,2.11-1,3.84,1.79,3.84h5.49C240,55.56,242.23,57.3,242.23,59.43Z" transform="translate(0 -14.63)"/><path class="cls-3" d="M271.47,59.43c0,2.13-2.25,3.88-5,3.88H248.92c-2.75,0-5-1.51-5-3.34s1.45-5.06,3.23-7.16l9-10.56c1.78-2.1,1-3.81-1.77-3.81h-4.81c-2.75,0-5-1.72-5-3.81s2.25-3.8,5-3.8h16.64c2.75,0,5,1.48,5,3.28s-1.45,5-3.21,7.12l-8.78,10.49c-1.77,2.11-1,3.84,1.79,3.84h5.49C269.22,55.56,271.47,57.3,271.47,59.43Z" transform="translate(0 -14.63)"/><path class="cls-3" d="M293.16,61.59c0-1-.51-1.3-1.13-.79l-.75.6a13.74,13.74,0,0,1-2.12,1.42,12.44,12.44,0,0,1-2.87,1,15.09,15.09,0,0,1-3.27.33,9.41,9.41,0,0,1-7-2.86A10,10,0,0,1,273.21,54a10.66,10.66,0,0,1,1.43-5.82,10,10,0,0,1,4.08-3.56,21.6,21.6,0,0,1,6.47-1.85c2.58-.36,3-.4,3-.4,2.74-.22,5-.45,5-.49s-.3-1.45-.66-3.12l-1.33-.69a13.15,13.15,0,0,0-5.84-1,15.21,15.21,0,0,0-5,.91l-1.76.61a14.63,14.63,0,0,1-2.45.79c-.24,0-.44-1.76-.44-3.92s1.18-4.2,2.61-4.55l2.24-.39a38.16,38.16,0,0,1,6.72-.6q8,0,11.59,2.74a6.65,6.65,0,0,1,2.69,3.65,68.72,68.72,0,0,1,.87,9.92v12.1a4.86,4.86,0,0,1-4.66,5C295.25,63.31,293.16,62.53,293.16,61.59Zm-1.58-5.53c.87-.69,1.58-2.77,1.58-4.62s-1.19-3.25-2.65-3.1l-1.48.2a18,18,0,0,0-3.37.71,4.53,4.53,0,0,0-2.15,1.43,3.8,3.8,0,0,0-.75,2.46,7.25,7.25,0,0,0,.16,1.64A2.45,2.45,0,0,0,283.7,56a3.6,3.6,0,0,0,1.44.85,8.79,8.79,0,0,0,2.61.28,7,7,0,0,0,2.86-.64Z" transform="translate(0 -14.63)"/><path class="cls-3" d="M333.94,53a9.67,9.67,0,0,1-4.08,8.11q-4.07,3.09-11.15,3.08a28.8,28.8,0,0,1-7.1-.81l-2.12-.54c-1.65-.68-3-3.17-3-5.53s.2-4.28.43-4.28a3.92,3.92,0,0,1,1.45.77l.62.43a15.83,15.83,0,0,0,2.62,1.4,19.48,19.48,0,0,0,3.32,1.15,16.24,16.24,0,0,0,4,.47,9.34,9.34,0,0,0,4.1-.68,2.16,2.16,0,0,0,1.33-2,1.92,1.92,0,0,0-.79-1.72L323,52.5c-1.35-.37-3.19-.84-4.09-1l-1.2-.2-1.19-.2a68.21,68.21,0,0,1-6.66-2.49s0,0-1.33-1.65A10,10,0,0,1,310.63,33q4-3.11,11-3.11a26.51,26.51,0,0,1,6.3.74l2,.49c1.49.6,2.71,2.93,2.71,5.19s-.19,4.11-.41,4.11a21.13,21.13,0,0,1-3.38-1.92L327,37.87a15.51,15.51,0,0,0-5.42-1,9.38,9.38,0,0,0-3.82.7,2.17,2.17,0,0,0-1.56,2,2.21,2.21,0,0,0,.71,1.77,9,9,0,0,0,3.31,1.21c1,.22,2,.42,3.1.63l1.1.2a60,60,0,0,1,6.53,2.4l1.18,1.53A9.08,9.08,0,0,1,333.94,53Z" transform="translate(0 -14.63)"/></g><path class="cls-4" d="M370.07,48.51a.58.58,0,0,0,.81-.07c.5-.6,1-1.22,1.49-1.85a54.06,54.06,0,0,0,6.82-11.3.58.58,0,0,0-.3-.75.52.52,0,0,0-.21,0,.57.57,0,0,0-.55.35,52.51,52.51,0,0,1-6.67,11c-.47.61-1,1.22-1.46,1.81A.58.58,0,0,0,370.07,48.51Z" transform="translate(0 -14.63)"/><path class="cls-4" d="M368.12,49.82l-.6.64a.57.57,0,1,0,.83.79c.21-.21.41-.43.61-.64a.58.58,0,0,0,0-.82.64.64,0,0,0-.37-.15A.62.62,0,0,0,368.12,49.82Z" transform="translate(0 -14.63)"/><path class="cls-4" d="M347.06,48.56a4.87,4.87,0,1,0,1.52-3.42A4.82,4.82,0,0,0,347.06,48.56ZM352,45a3.69,3.69,0,0,1,2.61,1.17,3.73,3.73,0,0,1-.14,5.29,3.79,3.79,0,0,1-2.67,1,3.74,3.74,0,0,1-3.64-3.84A3.76,3.76,0,0,1,352,45Z" transform="translate(0 -14.63)"/><path class="cls-4" d="M360.93,44.49a.56.56,0,0,0,.78-.21l1.54-2.61a.57.57,0,0,0-.48-.86.56.56,0,0,0-.51.28l-1.54,2.61A.58.58,0,0,0,360.93,44.49Z" transform="translate(0 -14.63)"/><path class="cls-4" d="M355.25,36.43l2.58,1.26a.56.56,0,0,0,.76-.27.57.57,0,0,0-.26-.76l-2.58-1.26a.53.53,0,0,0-.24-.06.57.57,0,0,0-.26,1.09Z" transform="translate(0 -14.63)"/><path class="cls-4" d="M348.23,30.67,351.45,29a.59.59,0,0,0,.25-.78.6.6,0,0,0-.5-.31.58.58,0,0,0-.28.07l-3.21,1.65a.58.58,0,0,0-.25.77A.57.57,0,0,0,348.23,30.67Z" transform="translate(0 -14.63)"/><path class="cls-4" d="M347.37,40.68a.58.58,0,0,0,.72-.38l.87-2.91a.59.59,0,0,0-.38-.72l-.15,0a.58.58,0,0,0-.57.41L347,40A.57.57,0,0,0,347.37,40.68Z" transform="translate(0 -14.63)"/><path class="cls-4" d="M332.77,20.57l3,8.68,2.83,8.14,7.6,21.78a4.23,4.23,0,0,0-2.35,5.32l0,.08A4.21,4.21,0,0,0,349.27,67a54,54,0,0,0,15.25-8.5,59.69,59.69,0,0,0,10.06-10.21A54.67,54.67,0,0,0,382,35.89a4.21,4.21,0,0,0-2.4-5.45,4.14,4.14,0,0,0-3.22.07,4.21,4.21,0,0,0-2.12,2.06l-4.14-1.71h0l-2.41-1-21.23-8.74h0l-1.19-.48L336.5,17a2.81,2.81,0,0,0-3.73,3.53Zm6.75,15.88-1.58-4.53-.86-2.48a3.74,3.74,0,0,1,3.36,6.37A4.11,4.11,0,0,1,339.52,36.45Zm37.29-4.89a3.07,3.07,0,0,1,4.09,3.92,53.65,53.65,0,0,1-7.23,12.13,58.08,58.08,0,0,1-9.86,10A52.74,52.74,0,0,1,348.89,66a3.1,3.1,0,0,1-3.9-1.79h0l0-.06a3.08,3.08,0,0,1,1.85-3.93l.33-.12h0a46.74,46.74,0,0,0,12.77-7.18A51.76,51.76,0,0,0,368.69,44a47.52,47.52,0,0,0,6.49-10.76A3.06,3.06,0,0,1,376.81,31.56ZM362.32,28.9l2.24.93,4.64,1.91a3.71,3.71,0,0,1-1,1.62,3.74,3.74,0,0,1-5.88-4.46Zm-17.11-7a3.74,3.74,0,0,1-6-2.48Zm-10.93-3.43a1.63,1.63,0,0,1,1.78-.33l1.95.8a4.88,4.88,0,0,0,1.33,3.39,4.9,4.9,0,0,0,6.91.19,1.59,1.59,0,0,0,.13-.13l14.87,6.12A4.88,4.88,0,0,0,369,34.19a4.8,4.8,0,0,0,1.29-2l3.51,1.44a50.08,50.08,0,0,1-6,9.72A48.29,48.29,0,0,1,347.3,58.77l-7.4-21.23a5.2,5.2,0,0,0,1.33-.9A4.88,4.88,0,0,0,338,28.21a4.46,4.46,0,0,0-1.31.14l-2.85-8.16A1.63,1.63,0,0,1,334.28,18.43Z" transform="translate(0 -14.63)"/></svg>